PathFileType	4	(x/y/z)	S09_SL_Cal_T01
DataRate	CameraRate	NumFrames	NumMarkers	Units	OrigDataRate	OrigDataStartFrame	OrigNumFrames
240	240	7	51	mm	240	1	2400
Frame#	Time	Sternum			R.Acromium			L.Acromium			Top.Head			R.ASIS			L.ASIS			R.PSIS			L.PSIS			R.Great.Tro			L.Great.Tro			R.Iliac.Crest			L.Iliac.Crest			V.Sacral			R.Thigh.Upper.Post			R.Thigh.Lower.Ant			R.Thigh.Lower.Post			R.Thigh.Upper.Ant			R.Knee.Lat			R.Knee.Med			R.Shank.Upper.Post			R.Shank.Lower.Ant			R.Shank.Lower.Post			R.Shank.Upper.Ant			R.Ankle.Lat			R.Ankle.Med			R.Heel.Upper			R.Heel.Med			R.Heel.Lat			R.Toe.Lat			R.Toe.Med			R.Toe.Tip			L.Thigh.Upper.Post			L.Thigh.Lower.Ant			L.Thigh.Lower.Post			L.Thigh.Upper.Ant			L.Knee.Lat			L.Knee.Med			L.Shank.Upper.Post			L.Shank.Lower.Ant			L.Shank.Lower.Post			L.Shank.Upper.Ant			L.Ankle.Lat			L.Ankle.Med			L.Heel.Upper			L.Heel.Med			L.Heel.Lat			L.Toe.Lat			L.Toe.Med			L.Toe.Tip			Cervical.Spine			Back			
		X1	Y1	Z1	X2	Y2	Z2	X3	Y3	Z3	X4	Y4	Z4	X5	Y5	Z5	X6	Y6	Z6	X7	Y7	Z7	X8	Y8	Z8	X9	Y9	Z9	X10	Y10	Z10	X11	Y11	Z11	X12	Y12	Z12	X13	Y13	Z13	X14	Y14	Z14	X15	Y15	Z15	X16	Y16	Z16	X17	Y17	Z17	X18	Y18	Z18	X19	Y19	Z19	X20	Y20	Z20	X21	Y21	Z21	X22	Y22	Z22	X23	Y23	Z23	X24	Y24	Z24	X25	Y25	Z25	X26	Y26	Z26	X27	Y27	Z27	X28	Y28	Z28	X29	Y29	Z29	X30	Y30	Z30	X31	Y31	Z31	X32	Y32	Z32	X33	Y33	Z33	X34	Y34	Z34	X35	Y35	Z35	X36	Y36	Z36	X37	Y37	Z37	X38	Y38	Z38	X39	Y39	Z39	X40	Y40	Z40	X41	Y41	Z41	X42	Y42	Z42	X43	Y43	Z43	X44	Y44	Z44	X45	Y45	Z45	X46	Y46	Z46	X47	Y47	Z47	X48	Y48	Z48	X49	Y49	Z49	X50	Y50	Z50	X51	Y51	Z51	

1	0	573.05	1206.2	295.27	435.48	1457.6	444.4	438.7	1453.2	129.83	491.02	1752	288.59	534.18	1037	400.67	523.19	1033.5	153.75	311.72	1060.7	331.03	313.91	1061.6	241.44	449.73	951.64	475.84	442.34	947.26	92.73	443.13	1115.1	447.16	414.58	1126.7	122.23	293.75	1026.2	284.27	420.35	710.11	465.53	474.08	599.29	426.82	399.79	619.57	445.6	486.76	687.15	448.97	439.14	526.16	420.6	420.73	511.59	301.96	360.04	353.79	439.36	438.37	301.96	415.19	357.39	277.66	430.58	423.37	368.51	435.7	391.54	93.978	411.78	422.42	105.56	328.33	332.34	75.995	361.69	342.67	44.383	332.81	333.71	46.351	397.11	492.43	40.081	453.8	542.28	46.388	348.05	588.76	61.155	395.63	361.45	701.52	121.56	431.13	596.11	112.99	367.86	611.07	131.42	428.29	684.58	97.175	410.33	515.84	118.88	423.84	515.87	254.76	363.47	382.42	102.18	429.88	294.82	113.03	366.99	305.24	105.79	425.44	372.85	110.26	404.1	105.58	126.11	417.26	96.795	217.62	334.42	69.446	172.75	345.47	45.565	206.2	337.42	41.77	144.68	512.13	43.739	95.723	545.63	44.835	205.85	598.85	62.074	148.83	366.08	1501.4	297.41	308.77	1242.9	282.21
2	0.0041667	572.97	1206.1	295.19	435.46	1457.6	444.42	438.67	1453.1	129.83	491.03	1752	288.61	534.15	1036.9	400.63	523.17	1033.5	153.75	311.71	1060.7	331.04	313.9	1061.6	241.45	449.89	951.71	475.8	442.64	947.4	92.268	443.12	1115.1	447.18	414.56	1126.7	122.25	293.74	1026.2	284.27	420.37	710.15	465.57	474.08	599.3	426.82	399.83	619.61	445.66	486.76	687.16	448.97	439.13	526.15	420.59	420.51	511.5	302.08	360.04	353.79	439.36	438.49	302.1	415.02	357.48	277.67	430.56	423.79	368.67	435.66	391.59	93.964	411.74	422.43	105.55	328.35	332.17	76.023	361.63	342.65	44.387	332.81	333.71	46.348	397.12	492.42	40.092	453.84	542.27	46.375	348.06	588.76	61.157	395.63	361.47	701.52	121.58	431.13	596.13	112.94	368.49	611.54	130.44	428.27	684.59	97.11	410.32	515.85	118.89	423.71	515.84	254.69	363.46	382.42	102.21	429.95	294.87	113	367	305.27	105.78	425.55	372.88	110.2	404.03	105.62	126.1	417.27	96.77	217.6	334.42	69.447	172.75	345.5	45.575	206.2	337.42	41.766	144.69	512.14	43.743	95.724	545.64	44.828	205.78	598.86	62.073	148.83	366.07	1501.4	297.43	308.76	1242.8	282.21
3	0.0083333	572.89	1206	295.12	435.45	1457.6	444.44	438.64	1453	129.82	491.05	1751.9	288.64	534.13	1036.9	400.59	523.16	1033.5	153.76	311.7	1060.7	331.05	313.89	1061.6	241.45	450.05	951.78	475.76	442.9	947.51	91.874	443.11	1115.1	447.19	414.54	1126.6	122.27	293.74	1026.2	284.27	420.39	710.19	465.62	474.08	599.3	426.82	399.86	619.65	445.73	486.75	687.16	448.97	439.11	526.14	420.57	420.3	511.42	302.19	360.04	353.8	439.37	438.41	302.01	415.18	357.57	277.68	430.53	424.2	368.82	435.63	391.63	93.951	411.71	422.44	105.53	328.36	332.02	76.051	361.56	342.64	44.391	332.81	333.71	46.346	397.13	492.41	40.103	453.87	542.26	46.362	348.08	588.76	61.16	395.63	361.49	701.52	121.59	431.12	596.15	112.89	369.14	612.03	129.41	428.24	684.6	97.047	410.32	515.86	118.9	423.58	515.8	254.63	363.45	382.42	102.24	430.01	294.92	112.97	367.02	305.3	105.77	425.65	372.91	110.15	403.96	105.65	126.08	417.27	96.746	217.59	334.43	69.448	172.75	345.53	45.584	206.21	337.42	41.762	144.69	512.16	43.746	95.724	545.64	44.821	205.71	598.86	62.072	148.83	366.06	1501.4	297.46	308.75	1242.8	282.22
4	0.0125	572.81	1205.9	295.05	435.43	1457.6	444.47	438.61	1452.9	129.82	491.07	1751.9	288.66	534.11	1036.9	400.55	523.14	1033.5	153.76	311.69	1060.7	331.06	313.88	1061.6	241.46	450.2	951.85	475.72	443.1	947.6	91.556	443.1	1115.1	447.2	414.53	1126.6	122.28	293.74	1026.2	284.28	420.41	710.22	465.67	474.08	599.3	426.82	399.89	619.69	445.79	486.75	687.16	448.97	439.1	526.13	420.55	420.09	511.33	302.3	360.04	353.81	439.38	NaN	NaN	NaN	357.66	277.68	430.5	424.6	368.96	435.59	391.67	93.937	411.67	422.44	105.52	328.38	331.86	76.077	361.5	342.63	44.394	332.8	333.71	46.343	397.14	492.41	40.112	453.9	542.25	46.351	348.09	588.75	61.163	395.63	361.51	701.52	121.6	431.11	596.17	112.85	369.81	612.53	128.34	428.22	684.61	96.987	410.31	515.86	118.9	423.46	515.77	254.57	363.45	382.44	102.26	430.06	294.96	112.95	367.04	305.34	105.75	425.74	372.93	110.11	403.89	105.68	126.07	417.28	96.723	217.57	334.43	69.449	172.75	345.56	45.593	206.21	337.41	41.759	144.69	512.17	43.749	95.725	545.65	44.814	205.64	598.86	62.072	148.83	366.05	1501.4	297.48	308.74	1242.7	282.22
5	0.016667	572.74	1205.9	294.99	435.42	1457.6	444.49	438.59	1452.8	129.82	491.09	1751.9	288.69	534.09	1036.8	400.51	523.12	1033.5	153.77	311.68	1060.7	331.07	313.87	1061.6	241.47	450.34	951.92	475.68	443.25	947.66	91.325	443.09	1115.1	447.21	414.51	1126.6	122.3	293.73	1026.2	284.28	420.43	710.26	465.71	474.08	599.3	426.83	399.92	619.73	445.85	486.75	687.16	448.97	439.09	526.12	420.54	419.9	511.25	302.4	360.04	353.81	439.38	NaN	NaN	NaN	357.74	277.69	430.48	424.98	369.09	435.55	391.71	93.924	411.64	422.45	105.51	328.39	331.72	76.102	361.44	342.61	44.398	332.8	333.71	46.34	397.15	492.4	40.121	453.93	542.24	46.341	348.11	588.75	61.167	395.62	361.52	701.52	121.61	431.1	596.19	112.8	370.48	613.04	127.25	428.19	684.61	96.93	410.3	515.87	118.91	423.34	515.74	254.52	363.45	382.45	102.28	430.1	294.99	112.93	367.07	305.38	105.72	425.8	372.95	110.07	403.82	105.71	126.06	417.29	96.702	217.56	334.44	69.45	172.74	345.58	45.602	206.21	337.41	41.756	144.7	512.18	43.752	95.725	545.65	44.808	205.58	598.87	62.072	148.83	366.04	1501.4	297.5	308.72	1242.7	282.22
6	0.020833	572.67	1205.8	294.93	435.4	1457.5	444.51	438.56	1452.8	129.82	491.11	1751.8	288.72	534.07	1036.8	400.48	523.1	1033.5	153.77	311.67	1060.7	331.08	313.87	1061.6	241.48	450.47	951.98	475.65	443.33	947.69	91.183	443.07	1115.1	447.22	414.5	1126.6	122.32	293.73	1026.2	284.29	420.45	710.29	465.75	474.09	599.3	426.83	399.94	619.77	445.91	486.75	687.16	448.97	439.08	526.11	420.52	419.72	511.18	302.49	360.05	353.82	439.38	NaN	NaN	NaN	357.81	277.69	430.45	425.32	369.21	435.51	391.75	93.912	411.61	422.46	105.49	328.41	331.59	76.124	361.39	342.6	44.401	332.8	333.71	46.337	397.16	492.39	40.127	453.96	542.23	46.332	348.12	588.75	61.171	395.62	361.54	701.52	121.62	431.09	596.2	112.77	371.13	613.55	126.15	428.16	684.62	96.879	410.29	515.88	118.92	423.23	515.72	254.47	363.46	382.47	102.29	430.13	295.02	112.92	367.11	305.43	105.67	425.86	372.96	110.05	403.76	105.74	126.05	417.29	96.682	217.55	334.44	69.451	172.74	345.6	45.611	206.21	337.41	41.754	144.7	512.19	43.756	95.725	545.65	44.804	205.52	598.87	62.073	148.82	366.03	1501.4	297.53	308.71	1242.7	282.23
7	0.025	572.61	1205.8	294.88	435.39	1457.5	444.53	438.53	1452.7	129.82	491.13	1751.8	288.75	534.05	1036.7	400.45	523.08	1033.4	153.78	311.67	1060.7	331.1	313.86	1061.6	241.49	450.58	952.03	475.62	443.35	947.68	91.132	443.07	1115.1	447.23	414.48	1126.5	122.34	293.72	1026.2	284.3	420.46	710.31	465.79	474.09	599.3	426.83	399.97	619.8	445.97	486.75	687.17	448.97	439.07	526.11	420.51	419.56	511.12	302.57	360.05	353.82	439.39	NaN	NaN	NaN	357.88	277.7	430.43	425.64	369.32	435.48	391.78	93.9	411.58	422.46	105.49	328.42	331.47	76.144	361.34	342.59	44.403	332.79	333.71	46.333	397.17	492.39	40.133	453.98	542.22	46.324	348.13	588.74	61.176	395.62	361.54	701.52	121.64	431.07	596.21	112.74	371.75	614.05	125.07	428.13	684.63	96.833	410.27	515.88	118.92	423.13	515.69	254.42	363.47	382.5	102.29	430.15	295.04	112.91	367.16	305.49	105.62	425.89	372.97	110.04	403.71	105.77	126.04	417.3	96.666	217.54	334.45	69.452	172.74	345.62	45.619	206.21	337.41	41.753	144.7	512.2	43.76	95.726	545.65	44.8	205.47	598.87	62.075	148.82	366.02	1501.4	297.55	308.69	1242.6	282.23
